<svg xmlns="http://www.w3.org/2000/svg" width="150" height="30" fill="red"><rect width="100%" height="100%" fill="#ffffff"></rect><polygon stroke="#f3af0e" stroke-width="1" points="15 ,20 20.877852522924734 ,23.090169943749473 19.755282581475768 ,16.545084971874736 24.510565162951536 ,11.909830056250527 17.938926261462367 ,10.954915028125264 15.000000000000002 ,5 12.061073738537635 ,10.954915028125264 5.489434837048465 ,11.909830056250524 10.244717418524232 ,16.545084971874736 9.122147477075266 ,23.090169943749473" fill="#f3af0e"></polygon><polygon stroke="#f3af0e" stroke-width="1" points="45 ,20 50.877852522924734 ,23.090169943749473 49.75528258147577 ,16.545084971874736 54.510565162951536 ,11.909830056250527 47.93892626146236 ,10.954915028125264 45 ,5 42.06107373853764 ,10.954915028125264 35.489434837048464 ,11.909830056250524 40.24471741852423 ,16.545084971874736 39.122147477075266 ,23.090169943749473" fill="#f3af0e"></polygon><polygon stroke="#f3af0e" stroke-width="1" points="75 ,20 80.87785252292473 ,23.090169943749473 79.75528258147577 ,16.545084971874736 84.51056516295154 ,11.909830056250527 77.93892626146237 ,10.954915028125264 75 ,5 72.06107373853763 ,10.954915028125264 65.48943483704846 ,11.909830056250524 70.24471741852423 ,16.545084971874736 69.12214747707526 ,23.090169943749473" fill="#f3af0e"></polygon><polygon stroke="#f3af0e" stroke-width="1" points="105 ,20 110.87785252292473 ,23.090169943749473 109.75528258147577 ,16.545084971874736 114.51056516295154 ,11.909830056250527 107.93892626146237 ,10.954915028125264 105 ,5 102.06107373853763 ,10.954915028125264 95.48943483704846 ,11.909830056250524 100.24471741852423 ,16.545084971874736 99.12214747707526 ,23.090169943749473" fill="transparent"></polygon><polygon stroke="#f3af0e" stroke-width="1" points="135 ,20 140.87785252292474 ,23.090169943749473 139.75528258147577 ,16.545084971874736 144.51056516295154 ,11.909830056250527 137.93892626146237 ,10.954915028125264 135 ,5 132.06107373853763 ,10.954915028125264 125.48943483704846 ,11.909830056250524 130.24471741852423 ,16.545084971874736 129.12214747707526 ,23.090169943749473" fill="transparent"></polygon></svg>